{
  "extensions" : {
    "EXT_structural_metadata" : {
      "schema" : {
        "id": "FeatureIdAttributeAndPropertyTableSchema",
        "classes" : {
          "exampleMetadataClass" : {
            "name" : "Example metadata class",
            "description" : "An example metadata class",
            "properties" : {
              "example_VEC3_FLOAT32" : {
                "name" : "Example VEC3 FLOAT32 property",
                "description" : "An example property, with type VEC3, with component type FLOAT32",
                "type" : "VEC3",
                "componentType" : "FLOAT32"
              }
            }
          }
        }
      },
      "propertyTables" : [ {
        "name" : "Example property table",
        "class" : "exampleMetadataClass",
        "count" : 4,
        "properties" : {
          "example_VEC3_FLOAT32" : {
            "values" : 4
          }
        }
      } ]
    }
  },
  "asset": {
    "generator": "Khronos glTF Blender I/O v4.0.44",
    "version": "2.0"
  },
  "scene": 0,
  "scenes": [
    {
      "name": "Scene",
      "nodes": [
        0,
        1,
        2,
        3
      ]
    }
  ],
  "nodes": [
    {
      "mesh": 0,
      "name": "cube1",
      "translation": [
        0,
        -0.014090001583099365,
        0
      ]
    },
    {
      "mesh": 1,
      "name": "cube2",
      "translation": [
        2.133939027786255,
        -0.014090001583099365,
        0
      ]
    },
    {
      "mesh": 2,
      "name": "cube4",
      "translation": [
        2.133939027786255,
        -0.014090001583099365,
        2.2256410121917725
      ]
    },
    {
      "mesh": 3,
      "name": "cube3",
      "translation": [
        0,
        -0.014090001583099365,
        2.2256410121917725
      ]
    }
  ],
  "meshes": [
    {
      "name": "cube1",
      "primitives": [
        {
          "extensions": {
            "EXT_mesh_features": {
              "featureIds": [
                {
                  "featureCount": 24,
                  "attribute": 0
                }
              ]
            }
          },
          "attributes": {
            "POSITION": 0,
            "NORMAL": 1,
            "TEXCOORD_0": 2,
            "_FEATURE_ID_0": 13
          },
          "indices": 3
        }
      ]
    },
    {
      "name": "cube2",
      "primitives": [
        {
          "extensions": {
            "EXT_mesh_features": {
              "featureIds": [
                {
                  "featureCount": 24,
                  "attribute": 0
                }
              ]
            }
          },
          "attributes": {
            "POSITION": 4,
            "NORMAL": 5,
            "TEXCOORD_0": 6,
            "_FEATURE_ID_0": 14
          },
          "indices": 3
        }
      ]
    },
    {
      "name": "cube4",
      "primitives": [
        {
          "extensions": {
            "EXT_mesh_features": {
              "featureIds": [
                {
                  "featureCount": 24,
                  "attribute": 0
                }
              ]
            }
          },
          "attributes": {
            "POSITION": 7,
            "NORMAL": 8,
            "TEXCOORD_0": 9,
            "_FEATURE_ID_0": 15
          },
          "indices": 3
        }
      ]
    },
    {
      "name": "cube3",
      "primitives": [
        {
          "extensions": {
            "EXT_mesh_features": {
              "featureIds": [
                {
                  "featureCount": 24,
                  "attribute": 0
                }
              ]
            }
          },
          "attributes": {
            "POSITION": 10,
            "NORMAL": 11,
            "TEXCOORD_0": 12,
            "_FEATURE_ID_0": 16
          },
          "indices": 3
        }
      ]
    }
  ],
  "accessors": [
    {
      "bufferView": 0,
      "componentType": 5126,
      "count": 24,
      "max": [
        1,
        0.07921826839447021,
        1
      ],
      "min": [
        -1,
        -0.07921826839447021,
        -1
      ],
      "type": "VEC3"
    },
    {
      "bufferView": 1,
      "componentType": 5126,
      "count": 24,
      "type": "VEC3"
    },
    {
      "bufferView": 2,
      "componentType": 5126,
      "count": 24,
      "type": "VEC2"
    },
    {
      "bufferView": 3,
      "componentType": 5123,
      "count": 36,
      "type": "SCALAR"
    },
    {
      "bufferView": 4,
      "componentType": 5126,
      "count": 24,
      "max": [
        1,
        0.07921826839447021,
        1
      ],
      "min": [
        -1,
        -0.07921826839447021,
        -1
      ],
      "type": "VEC3"
    },
    {
      "bufferView": 5,
      "componentType": 5126,
      "count": 24,
      "type": "VEC3"
    },
    {
      "bufferView": 6,
      "componentType": 5126,
      "count": 24,
      "type": "VEC2"
    },
    {
      "bufferView": 7,
      "componentType": 5126,
      "count": 24,
      "max": [
        1,
        0.07921826839447021,
        1
      ],
      "min": [
        -1,
        -0.07921826839447021,
        -1
      ],
      "type": "VEC3"
    },
    {
      "bufferView": 8,
      "componentType": 5126,
      "count": 24,
      "type": "VEC3"
    },
    {
      "bufferView": 9,
      "componentType": 5126,
      "count": 24,
      "type": "VEC2"
    },
    {
      "bufferView": 10,
      "componentType": 5126,
      "count": 24,
      "max": [
        1,
        0.07921826839447021,
        1
      ],
      "min": [
        -1,
        -0.07921826839447021,
        -1
      ],
      "type": "VEC3"
    },
    {
      "bufferView": 11,
      "componentType": 5126,
      "count": 24,
      "type": "VEC3"
    },
    {
      "bufferView": 12,
      "componentType": 5126,
      "count": 24,
      "type": "VEC2"
    },
    {
      "bufferView": 13,
      "byteOffset": 0,
      "componentType": 5121,
      "count": 24,
      "type": "SCALAR",
      "max": [
        0
      ],
      "min": [
        0
      ]
    },
    {
      "bufferView": 14,
      "byteOffset": 0,
      "componentType": 5121,
      "count": 24,
      "type": "SCALAR",
      "max": [
        1
      ],
      "min": [
        1
      ]
    },
    {
      "bufferView": 15,
      "byteOffset": 0,
      "componentType": 5121,
      "count": 24,
      "type": "SCALAR",
      "max": [
        2
      ],
      "min": [
        2
      ]
    },
    {
      "bufferView": 16,
      "byteOffset": 0,
      "componentType": 5121,
      "count": 24,
      "type": "SCALAR",
      "max": [
        3
      ],
      "min": [
        3
      ]
    }
  ],
  "bufferViews": [
    {
      "buffer": 0,
      "byteLength": 288,
      "byteOffset": 0,
      "target": 34962
    },
    {
      "buffer": 0,
      "byteLength": 288,
      "byteOffset": 288,
      "target": 34962
    },
    {
      "buffer": 0,
      "byteLength": 192,
      "byteOffset": 576,
      "target": 34962
    },
    {
      "buffer": 0,
      "byteLength": 72,
      "byteOffset": 768,
      "target": 34963
    },
    {
      "buffer": 0,
      "byteLength": 288,
      "byteOffset": 840,
      "target": 34962
    },
    {
      "buffer": 0,
      "byteLength": 288,
      "byteOffset": 1128,
      "target": 34962
    },
    {
      "buffer": 0,
      "byteLength": 192,
      "byteOffset": 1416,
      "target": 34962
    },
    {
      "buffer": 0,
      "byteLength": 288,
      "byteOffset": 1608,
      "target": 34962
    },
    {
      "buffer": 0,
      "byteLength": 288,
      "byteOffset": 1896,
      "target": 34962
    },
    {
      "buffer": 0,
      "byteLength": 192,
      "byteOffset": 2184,
      "target": 34962
    },
    {
      "buffer": 0,
      "byteLength": 288,
      "byteOffset": 2376,
      "target": 34962
    },
    {
      "buffer": 0,
      "byteLength": 288,
      "byteOffset": 2664,
      "target": 34962
    },
    {
      "buffer": 0,
      "byteLength": 192,
      "byteOffset": 2952,
      "target": 34962
    },
    {
      "buffer": 1,
      "byteOffset": 0,
      "byteLength": 96,
      "byteStride": 4,
      "target": 34962
    },
    {
      "buffer": 1,
      "byteOffset": 96,
      "byteLength": 96,
      "byteStride": 4,
      "target": 34962
    },
    {
      "buffer": 1,
      "byteOffset": 192,
      "byteLength": 96,
      "byteStride": 4,
      "target": 34962
    },
    {
      "buffer": 1,
      "byteOffset": 288,
      "byteLength": 96,
      "byteStride": 4,
      "target": 34962
    }, {
      "buffer" : 2,
      "byteOffset" : 0,
      "byteLength" : 48
    }
  ],
  "buffers": [
    {
      "byteLength": 3144,
      "uri": "cube.bin"
    },{
      "uri": "data:application/octet-stream;base64,",
      "byteLength": 384
    }, {
      "uri" : "data:application/gltf-buffer;base64,",
      "byteLength" : 48
    }
  ],
  "extensionsUsed": [
    "EXT_mesh_features",
    "EXT_structural_metadata"
  ]
}
