{
	"asset":{
		"generator":"Khronos glTF Blender I/O v4.0.44",
		"version":"2.0"
	},
	"scene":0,
	"scenes":[
		{
			"name":"Scene",
			"nodes":[
				0
			]
		}
	],
	"nodes":[
		{
			"mesh":0,
			"name":"\u7acb\u65b9\u4f53.001",
			"translation":[
				-85.84120178222656,
				0.058920200914144516,
				22.847179412841797
			]
		}
	],
	"meshes":[
		{
			"name":"\u7acb\u65b9\u4f53.12289",
			"primitives":[
				{
					"attributes":{
						"POSITION":0,
						"NORMAL":1,
						"TEXCOORD_0":2
					},
					"indices":3
				}
			]
		}
	],
	"accessors":[
		{
			"bufferView":0,
			"componentType":5126,
			"count":1228800,
			"max":[
				319.2763366699219,
				0.043612126260995865,
				316.9058532714844
			],
			"min":[
				-317.05450439453125,
				-0.04337906464934349,
				-312.1567687988281
			],
			"type":"VEC3"
		},
		{
			"bufferView":1,
			"componentType":5126,
			"count":1228800,
			"type":"VEC3"
		},
		{
			"bufferView":2,
			"componentType":5126,
			"count":1228800,
			"type":"VEC2"
		},
		{
			"bufferView":3,
			"componentType":5125,
			"count":1843200,
			"type":"SCALAR"
		}
	],
	"bufferViews":[
		{
			"buffer":0,
			"byteLength":14745600,
			"byteOffset":0,
			"target":34962
		},
		{
			"buffer":0,
			"byteLength":14745600,
			"byteOffset":14745600,
			"target":34962
		},
		{
			"buffer":0,
			"byteLength":9830400,
			"byteOffset":29491200,
			"target":34962
		},
		{
			"buffer":0,
			"byteLength":7372800,
			"byteOffset":39321600,
			"target":34963
		}
	],
	"buffers":[
		{
			"byteLength":46694400,
			"uri":"blender2.bin"
		}
	]
}
