{
	"asset":{
		"generator":"Khronos glTF Blender I/O v4.2.57",
		"version":"2.0"
	},
	"scene":0,
	"scenes":[
		{
			"name":"Scene",
			"nodes":[
				0
			]
		}
	],
	"nodes":[
		{
			"mesh":0,
      "extensions": {
        "EXT_mesh_gpu_instancing": {
          "attributes": {
            "TRANSLATION": 3
          }
        }
      },
			"name":"2378204077051936768.008"
		}
	],
	"materials":[
		{
			"name":"Material_0",
			"pbrMetallicRoughness":{
				"baseColorFactor":[
					0,
					0,
					1,
					1
				],
				"metallicFactor":0
			}
		}
	],
	"meshes":[
		{
			"name":"Mesh_720",
			"primitives":[
				{
					"attributes":{
						"POSITION":0,
						"NORMAL":1
					},
					"indices":2,
					"material":0
				}
			]
		}
	],
	"accessors":[
		{
			"bufferView":0,
			"componentType":5126,
			"count":24,
			"max":[
				1.1389999389648438,
				0.015000015497207642,
				0.5670166015625
			],
			"min":[
				-1.1389999389648438,
				-0.014999985694885254,
				-0.5669708251953125
			],
			"type":"VEC3"
		},
		{
			"bufferView":1,
			"componentType":5126,
			"count":24,
			"type":"VEC3"
		},
		{
			"bufferView":2,
			"componentType":5123,
			"count":36,
			"type":"SCALAR"
		},
    {
      "bufferView": 3,
      "byteOffset": 0,
      "componentType": 5126,
      "count": 10000,
      "type": "VEC3"
    },
    {
      "bufferView": 4,
      "byteOffset": 0,
      "componentType": 5126,
      "count": 100,
      "type": "VEC4"
    },
    {
      "bufferView": 5,
      "byteOffset": 0,
      "componentType": 5126,
      "count": 100,
      "type": "VEC3"
    }
	],
	"bufferViews":[
		{
			"buffer":0,
			"byteLength":288,
			"byteOffset":0,
			"target":34962
		},
		{
			"buffer":0,
			"byteLength":288,
			"byteOffset":288,
			"target":34962
		},
		{
			"buffer":0,
			"byteLength":72,
			"byteOffset":576,
			"target":34963
		},
    {
      "buffer": 1,
      "byteOffset": 0,
      "byteLength": 120000
    },
    {
      "buffer": 2,
      "byteOffset": 0,
      "byteLength": 1600
    },
    {
      "buffer": 3,
      "byteOffset": 0,
      "byteLength": 1200
    }
	],
	"buffers":[
		{
			"byteLength":648,
			"uri":"single_component.bin"
		},
    {
      "byteLength": 120000,
      "uri": "component_10000.bin"
    },
    {
      "byteLength": 1600,
      "uri": "data:application/gltf-buffer;base64,"
    },
    {
      "byteLength": 1200,
      "uri": "data:application/gltf-buffer;base64,"
    }
	],
  "extensionsUsed": [
    "EXT_mesh_gpu_instancing"
  ]
}
