{
	"asset":{
		"generator":"Khronos glTF Blender I/O v4.0.44",
		"version":"2.0"
	},
	"scene":0,
	"scenes":[
		{
			"name":"Scene",
			"nodes":[
				0
			]
		}
	],
	"nodes":[
		{
			"mesh":0,
      "extensions": {
        "EXT_mesh_gpu_instancing": {
          "attributes": {
            "TRANSLATION": 3
          }
        }
      },
			"name":"cube_instance"
		}
	],
	"meshes":[
		{
			"name":"cube_instance",
			"primitives":[
				{
					"attributes":{
						"POSITION":0,
						"NORMAL":1
					},
					"indices":2
				}
			]
		}
	],
	"accessors":[
		{
			"bufferView":0,
			"componentType":5126,
			"count":24,
			"max":[
				0.1158541589975357,
				0.026819437742233276,
				0.10485827177762985
			],
			"min":[
				-0.1158541589975357,
				-0.026819467544555664,
				-0.10485827177762985
			],
			"type":"VEC3"
		},
		{
			"bufferView":1,
			"componentType":5126,
			"count":24,
			"type":"VEC3"
		},
		{
			"bufferView":2,
			"componentType":5123,
			"count":36,
			"type":"SCALAR"
		},
    {
      "bufferView": 3,
      "byteOffset": 0,
      "componentType": 5126,
      "count": 1000000,
      "type": "VEC3"
    },
    {
      "bufferView": 4,
      "byteOffset": 0,
      "componentType": 5126,
      "count": 100,
      "type": "VEC4"
    },
    {
      "bufferView": 5,
      "byteOffset": 0,
      "componentType": 5126,
      "count": 100,
      "type": "VEC3"
    }
	],
	"bufferViews":[
		{
			"buffer":0,
			"byteLength":288,
			"byteOffset":0,
			"target":34962
		},
		{
			"buffer":0,
			"byteLength":288,
			"byteOffset":288,
			"target":34962
		},
		{
			"buffer":0,
			"byteLength":72,
			"byteOffset":768,
			"target":34963
		},
    {
      "buffer": 1,
      "byteOffset": 0,
      "byteLength": 12000000
    },
    {
      "buffer": 2,
      "byteOffset": 0,
      "byteLength": 1600
    },
    {
      "buffer": 3,
      "byteOffset": 0,
      "byteLength": 1200
    }
	],
	"buffers":[
		{
			"byteLength":840,
			"uri":"cube_instance.bin"
		},
    {
      "byteLength": 12000000,
      "uri": "data.bin"
    },
    {
      "byteLength": 1600,
      "uri": "data:application/gltf-buffer;base64,"
    },
    {
      "byteLength": 1200,
      "uri": "data:application/gltf-buffer;base64,"
    }
	],
  "extensionsUsed": [
    "EXT_mesh_gpu_instancing",
    "EXT_instance_features"
  ]
}
